<?xml version="1.0" encoding="UTF-8" standalone="no"?><svg xmlns="http://www.w3.org/2000/svg" xmlns:xlink="http://www.w3.org/1999/xlink" contentStyleType="text/css" height="505px" preserveAspectRatio="none" style="width:753px;height:505px;background:#FFFFFF;" version="1.1" viewBox="0 0 753 505" width="753px" zoomAndPan="magnify"><defs/><g><!--MD5=[eca71ce118dab17e2c498309d5e14a6d]
class Partido--><g id="elem_Partido"><rect fill="#F1F1F1" height="48" id="Partido" rx="2.5" ry="2.5" style="stroke:#181818;stroke-width:0.5;" width="80" x="281" y="7"/><ellipse cx="296" cy="23" fill="#ADD1B2" rx="11" ry="11" style="stroke:#181818;stroke-width:1.0;"/><path d="M295.4688,29.9219 Q293.7188,29.9219 292.5781,29.1875 Q291.4531,28.4375 290.8906,27.0938 Q290.3438,25.7344 290.3438,23.9375 Q290.3438,21.9063 291,20.4531 Q291.6563,19 292.9375,18.2188 Q294.2188,17.4375 296.0938,17.4375 Q296.9844,17.4375 297.6563,17.625 Q298.3281,17.7969 299.0156,18.1406 L298.2031,20.1563 Q297.5781,19.8438 297.0313,19.7188 Q296.5,19.5938 296.0156,19.5938 Q294.8438,19.5938 294.1406,20.125 Q293.4375,20.6563 293.1406,21.6094 Q292.8438,22.5625 292.8438,23.8281 Q292.8438,25.8438 293.5625,26.8125 Q294.2813,27.7656 295.875,27.7656 Q296.4688,27.7656 297.0938,27.6094 Q297.7188,27.4531 298.5469,27.0781 L298.5469,29.2969 Q297.8125,29.6094 297.0156,29.7656 Q296.2344,29.9219 295.4688,29.9219 Z " fill="#000000"/><text fill="#000000" font-family="sans-serif" font-size="14" lengthAdjust="spacing" textLength="48" x="310" y="28.432">Partido</text><line style="stroke:#181818;stroke-width:0.5;" x1="282" x2="360" y1="39" y2="39"/><line style="stroke:#181818;stroke-width:0.5;" x1="282" x2="360" y1="47" y2="47"/></g><!--MD5=[cb0e43af56e2ee8ab00b5a0441550978]
class Encuentro--><g id="elem_Encuentro"><rect fill="#F1F1F1" height="48" id="Encuentro" rx="2.5" ry="2.5" style="stroke:#181818;stroke-width:0.5;" width="101" x="12.5" y="7"/><ellipse cx="27.5" cy="23" fill="#ADD1B2" rx="11" ry="11" style="stroke:#181818;stroke-width:1.0;"/><path d="M26.9688,29.9219 Q25.2188,29.9219 24.0781,29.1875 Q22.9531,28.4375 22.3906,27.0938 Q21.8438,25.7344 21.8438,23.9375 Q21.8438,21.9063 22.5,20.4531 Q23.1563,19 24.4375,18.2188 Q25.7188,17.4375 27.5938,17.4375 Q28.4844,17.4375 29.1563,17.625 Q29.8281,17.7969 30.5156,18.1406 L29.7031,20.1563 Q29.0781,19.8438 28.5313,19.7188 Q28,19.5938 27.5156,19.5938 Q26.3438,19.5938 25.6406,20.125 Q24.9375,20.6563 24.6406,21.6094 Q24.3438,22.5625 24.3438,23.8281 Q24.3438,25.8438 25.0625,26.8125 Q25.7813,27.7656 27.375,27.7656 Q27.9688,27.7656 28.5938,27.6094 Q29.2188,27.4531 30.0469,27.0781 L30.0469,29.2969 Q29.3125,29.6094 28.5156,29.7656 Q27.7344,29.9219 26.9688,29.9219 Z " fill="#000000"/><text fill="#000000" font-family="sans-serif" font-size="14" lengthAdjust="spacing" textLength="69" x="41.5" y="28.432">Encuentro</text><line style="stroke:#181818;stroke-width:0.5;" x1="13.5" x2="112.5" y1="39" y2="39"/><line style="stroke:#181818;stroke-width:0.5;" x1="13.5" x2="112.5" y1="47" y2="47"/></g><!--MD5=[fd052a601dbe30b7610bec73431029ab]
class Períodos--><g id="elem_Períodos"><rect fill="#F1F1F1" height="48" id="Períodos" rx="2.5" ry="2.5" style="stroke:#181818;stroke-width:0.5;" width="90" x="7" y="134"/><ellipse cx="22" cy="150" fill="#ADD1B2" rx="11" ry="11" style="stroke:#181818;stroke-width:1.0;"/><path d="M21.4688,156.9219 Q19.7188,156.9219 18.5781,156.1875 Q17.4531,155.4375 16.8906,154.0938 Q16.3438,152.7344 16.3438,150.9375 Q16.3438,148.9063 17,147.4531 Q17.6563,146 18.9375,145.2188 Q20.2188,144.4375 22.0938,144.4375 Q22.9844,144.4375 23.6563,144.625 Q24.3281,144.7969 25.0156,145.1406 L24.2031,147.1563 Q23.5781,146.8438 23.0313,146.7188 Q22.5,146.5938 22.0156,146.5938 Q20.8438,146.5938 20.1406,147.125 Q19.4375,147.6563 19.1406,148.6094 Q18.8438,149.5625 18.8438,150.8281 Q18.8438,152.8438 19.5625,153.8125 Q20.2813,154.7656 21.875,154.7656 Q22.4688,154.7656 23.0938,154.6094 Q23.7188,154.4531 24.5469,154.0781 L24.5469,156.2969 Q23.8125,156.6094 23.0156,156.7656 Q22.2344,156.9219 21.4688,156.9219 Z " fill="#000000"/><text fill="#000000" font-family="sans-serif" font-size="14" lengthAdjust="spacing" textLength="58" x="36" y="155.432">Períodos</text><line style="stroke:#181818;stroke-width:0.5;" x1="8" x2="96" y1="166" y2="166"/><line style="stroke:#181818;stroke-width:0.5;" x1="8" x2="96" y1="174" y2="174"/></g><!--MD5=[f8ee293aa2dcf772bab405924dc5c6e1]
class Reglas--><g id="elem_Reglas"><rect fill="#F1F1F1" height="48" id="Reglas" rx="2.5" ry="2.5" style="stroke:#181818;stroke-width:0.5;" width="77" x="276.5" y="450"/><ellipse cx="291.5" cy="466" fill="#ADD1B2" rx="11" ry="11" style="stroke:#181818;stroke-width:1.0;"/><path d="M290.9688,472.9219 Q289.2188,472.9219 288.0781,472.1875 Q286.9531,471.4375 286.3906,470.0938 Q285.8438,468.7344 285.8438,466.9375 Q285.8438,464.9063 286.5,463.4531 Q287.1563,462 288.4375,461.2188 Q289.7188,460.4375 291.5938,460.4375 Q292.4844,460.4375 293.1563,460.625 Q293.8281,460.7969 294.5156,461.1406 L293.7031,463.1563 Q293.0781,462.8438 292.5313,462.7188 Q292,462.5938 291.5156,462.5938 Q290.3438,462.5938 289.6406,463.125 Q288.9375,463.6563 288.6406,464.6094 Q288.3438,465.5625 288.3438,466.8281 Q288.3438,468.8438 289.0625,469.8125 Q289.7813,470.7656 291.375,470.7656 Q291.9688,470.7656 292.5938,470.6094 Q293.2188,470.4531 294.0469,470.0781 L294.0469,472.2969 Q293.3125,472.6094 292.5156,472.7656 Q291.7344,472.9219 290.9688,472.9219 Z " fill="#000000"/><text fill="#000000" font-family="sans-serif" font-size="14" lengthAdjust="spacing" textLength="45" x="305.5" y="471.432">Reglas</text><line style="stroke:#181818;stroke-width:0.5;" x1="277.5" x2="352.5" y1="482" y2="482"/><line style="stroke:#181818;stroke-width:0.5;" x1="277.5" x2="352.5" y1="490" y2="490"/></g><!--MD5=[b9bfe9bb47104ae8957dd80d709fe3bd]
class Alineación--><g id="elem_Alineación"><rect fill="#F1F1F1" height="48" id="Alineación" rx="2.5" ry="2.5" style="stroke:#181818;stroke-width:0.5;" width="102" x="603" y="134"/><ellipse cx="618" cy="150" fill="#ADD1B2" rx="11" ry="11" style="stroke:#181818;stroke-width:1.0;"/><path d="M617.4688,156.9219 Q615.7188,156.9219 614.5781,156.1875 Q613.4531,155.4375 612.8906,154.0938 Q612.3438,152.7344 612.3438,150.9375 Q612.3438,148.9063 613,147.4531 Q613.6563,146 614.9375,145.2188 Q616.2188,144.4375 618.0938,144.4375 Q618.9844,144.4375 619.6563,144.625 Q620.3281,144.7969 621.0156,145.1406 L620.2031,147.1563 Q619.5781,146.8438 619.0313,146.7188 Q618.5,146.5938 618.0156,146.5938 Q616.8438,146.5938 616.1406,147.125 Q615.4375,147.6563 615.1406,148.6094 Q614.8438,149.5625 614.8438,150.8281 Q614.8438,152.8438 615.5625,153.8125 Q616.2813,154.7656 617.875,154.7656 Q618.4688,154.7656 619.0938,154.6094 Q619.7188,154.4531 620.5469,154.0781 L620.5469,156.2969 Q619.8125,156.6094 619.0156,156.7656 Q618.2344,156.9219 617.4688,156.9219 Z " fill="#000000"/><text fill="#000000" font-family="sans-serif" font-size="14" lengthAdjust="spacing" textLength="70" x="632" y="155.432">Alineación</text><line style="stroke:#181818;stroke-width:0.5;" x1="604" x2="704" y1="166" y2="166"/><line style="stroke:#181818;stroke-width:0.5;" x1="604" x2="704" y1="174" y2="174"/></g><!--MD5=[00f78a58769d728c344b090a7bf7deb1]
class Arbitro--><g id="elem_Arbitro"><rect fill="#F1F1F1" height="48" id="Arbitro" rx="2.5" ry="2.5" style="stroke:#181818;stroke-width:0.5;" width="79" x="348.5" y="261"/><ellipse cx="363.5" cy="277" fill="#ADD1B2" rx="11" ry="11" style="stroke:#181818;stroke-width:1.0;"/><path d="M362.9688,283.9219 Q361.2188,283.9219 360.0781,283.1875 Q358.9531,282.4375 358.3906,281.0938 Q357.8438,279.7344 357.8438,277.9375 Q357.8438,275.9063 358.5,274.4531 Q359.1563,273 360.4375,272.2188 Q361.7188,271.4375 363.5938,271.4375 Q364.4844,271.4375 365.1563,271.625 Q365.8281,271.7969 366.5156,272.1406 L365.7031,274.1563 Q365.0781,273.8438 364.5313,273.7188 Q364,273.5938 363.5156,273.5938 Q362.3438,273.5938 361.6406,274.125 Q360.9375,274.6563 360.6406,275.6094 Q360.3438,276.5625 360.3438,277.8281 Q360.3438,279.8438 361.0625,280.8125 Q361.7813,281.7656 363.375,281.7656 Q363.9688,281.7656 364.5938,281.6094 Q365.2188,281.4531 366.0469,281.0781 L366.0469,283.2969 Q365.3125,283.6094 364.5156,283.7656 Q363.7344,283.9219 362.9688,283.9219 Z " fill="#000000"/><text fill="#000000" font-family="sans-serif" font-size="14" lengthAdjust="spacing" textLength="47" x="377.5" y="282.432">Arbitro</text><line style="stroke:#181818;stroke-width:0.5;" x1="349.5" x2="426.5" y1="293" y2="293"/><line style="stroke:#181818;stroke-width:0.5;" x1="349.5" x2="426.5" y1="301" y2="301"/></g><!--MD5=[e54d1ddad44fdb9ba256a8749f08d4fc]
class Equipo--><g id="elem_Equipo"><rect fill="#F1F1F1" height="48" id="Equipo" rx="2.5" ry="2.5" style="stroke:#181818;stroke-width:0.5;" width="79" x="657.5" y="261"/><ellipse cx="672.5" cy="277" fill="#ADD1B2" rx="11" ry="11" style="stroke:#181818;stroke-width:1.0;"/><path d="M671.9688,283.9219 Q670.2188,283.9219 669.0781,283.1875 Q667.9531,282.4375 667.3906,281.0938 Q666.8438,279.7344 666.8438,277.9375 Q666.8438,275.9063 667.5,274.4531 Q668.1563,273 669.4375,272.2188 Q670.7188,271.4375 672.5938,271.4375 Q673.4844,271.4375 674.1563,271.625 Q674.8281,271.7969 675.5156,272.1406 L674.7031,274.1563 Q674.0781,273.8438 673.5313,273.7188 Q673,273.5938 672.5156,273.5938 Q671.3438,273.5938 670.6406,274.125 Q669.9375,274.6563 669.6406,275.6094 Q669.3438,276.5625 669.3438,277.8281 Q669.3438,279.8438 670.0625,280.8125 Q670.7813,281.7656 672.375,281.7656 Q672.9688,281.7656 673.5938,281.6094 Q674.2188,281.4531 675.0469,281.0781 L675.0469,283.2969 Q674.3125,283.6094 673.5156,283.7656 Q672.7344,283.9219 671.9688,283.9219 Z " fill="#000000"/><text fill="#000000" font-family="sans-serif" font-size="14" lengthAdjust="spacing" textLength="47" x="686.5" y="282.432">Equipo</text><line style="stroke:#181818;stroke-width:0.5;" x1="658.5" x2="735.5" y1="293" y2="293"/><line style="stroke:#181818;stroke-width:0.5;" x1="658.5" x2="735.5" y1="301" y2="301"/></g><!--MD5=[e570de1d41a3b8125e1c820568fd7a6a]
class Jugador--><g id="elem_Jugador"><rect fill="#F1F1F1" height="48" id="Jugador" rx="2.5" ry="2.5" style="stroke:#181818;stroke-width:0.5;" width="85" x="462.5" y="261"/><ellipse cx="477.5" cy="277" fill="#ADD1B2" rx="11" ry="11" style="stroke:#181818;stroke-width:1.0;"/><path d="M476.9688,283.9219 Q475.2188,283.9219 474.0781,283.1875 Q472.9531,282.4375 472.3906,281.0938 Q471.8438,279.7344 471.8438,277.9375 Q471.8438,275.9063 472.5,274.4531 Q473.1563,273 474.4375,272.2188 Q475.7188,271.4375 477.5938,271.4375 Q478.4844,271.4375 479.1563,271.625 Q479.8281,271.7969 480.5156,272.1406 L479.7031,274.1563 Q479.0781,273.8438 478.5313,273.7188 Q478,273.5938 477.5156,273.5938 Q476.3438,273.5938 475.6406,274.125 Q474.9375,274.6563 474.6406,275.6094 Q474.3438,276.5625 474.3438,277.8281 Q474.3438,279.8438 475.0625,280.8125 Q475.7813,281.7656 477.375,281.7656 Q477.9688,281.7656 478.5938,281.6094 Q479.2188,281.4531 480.0469,281.0781 L480.0469,283.2969 Q479.3125,283.6094 478.5156,283.7656 Q477.7344,283.9219 476.9688,283.9219 Z " fill="#000000"/><text fill="#000000" font-family="sans-serif" font-size="14" lengthAdjust="spacing" textLength="53" x="491.5" y="282.432">Jugador</text><line style="stroke:#181818;stroke-width:0.5;" x1="463.5" x2="546.5" y1="293" y2="293"/><line style="stroke:#181818;stroke-width:0.5;" x1="463.5" x2="546.5" y1="301" y2="301"/></g><!--MD5=[8f63dadf5c643e74a34e53c8f0a15d23]
class Persona--><g id="elem_Persona"><rect fill="#F1F1F1" height="48" id="Persona" rx="2.5" ry="2.5" style="stroke:#181818;stroke-width:0.5;" width="86" x="439" y="134"/><ellipse cx="454" cy="150" fill="#ADD1B2" rx="11" ry="11" style="stroke:#181818;stroke-width:1.0;"/><path d="M453.4688,156.9219 Q451.7188,156.9219 450.5781,156.1875 Q449.4531,155.4375 448.8906,154.0938 Q448.3438,152.7344 448.3438,150.9375 Q448.3438,148.9063 449,147.4531 Q449.6563,146 450.9375,145.2188 Q452.2188,144.4375 454.0938,144.4375 Q454.9844,144.4375 455.6563,144.625 Q456.3281,144.7969 457.0156,145.1406 L456.2031,147.1563 Q455.5781,146.8438 455.0313,146.7188 Q454.5,146.5938 454.0156,146.5938 Q452.8438,146.5938 452.1406,147.125 Q451.4375,147.6563 451.1406,148.6094 Q450.8438,149.5625 450.8438,150.8281 Q450.8438,152.8438 451.5625,153.8125 Q452.2813,154.7656 453.875,154.7656 Q454.4688,154.7656 455.0938,154.6094 Q455.7188,154.4531 456.5469,154.0781 L456.5469,156.2969 Q455.8125,156.6094 455.0156,156.7656 Q454.2344,156.9219 453.4688,156.9219 Z " fill="#000000"/><text fill="#000000" font-family="sans-serif" font-size="14" lengthAdjust="spacing" textLength="54" x="468" y="155.432">Persona</text><line style="stroke:#181818;stroke-width:0.5;" x1="440" x2="524" y1="166" y2="166"/><line style="stroke:#181818;stroke-width:0.5;" x1="440" x2="524" y1="174" y2="174"/></g><!--MD5=[d64ab82473fc81a1c9af490a3a8dd326]
reverse link Encuentro to Partido--><g id="link_Encuentro_Partido"><path codeLine="2" d="M118.91,31 C167.63,31 237.12,31 280.61,31 " fill="none" id="Encuentro-backto-Partido" style="stroke:#181818;stroke-width:1.0;"/><polygon fill="#181818" points="113.66,31,122.66,35,118.66,31,122.66,27,113.66,31" style="stroke:#181818;stroke-width:1.0;"/><polygon fill="#000000" points="133.25,18.853,142.2951,21.7919,142.2951,15.9141,133.25,18.853" style="stroke:#000000;stroke-width:1.0;"/><text fill="#000000" font-family="sans-serif" font-size="13" lengthAdjust="spacing" textLength="113" x="147.25" y="23.897">Se desarrolla en un</text></g><!--MD5=[c31e56611ef950b5c29ebec2e5a26b59]
reverse link Encuentro to Períodos--><g id="link_Encuentro_Períodos"><path codeLine="3" d="M52.18,67.94 C50.86,73.6 49.72,79.43 49,85 C46.89,101.25 47.72,119.73 49.04,133.89 " fill="none" id="Encuentro-backto-Períodos" style="stroke:#181818;stroke-width:1.0;"/><polygon fill="#181818" points="55.48,55.22,50.0992,60.0207,52.4611,66.8341,57.8419,62.0333,55.48,55.22" style="stroke:#181818;stroke-width:1.0;"/><polygon fill="#000000" points="53.7622,99.8474,57.128,90.9523,51.2568,90.6727,53.7622,99.8474" style="stroke:#000000;stroke-width:1.0;"/><text fill="#000000" font-family="sans-serif" font-size="13" lengthAdjust="spacing" textLength="137" x="63" y="99.897">Consta de uno o varios</text></g><!--MD5=[421f88c2cd9527279ae54241f400eeb2]
reverse link Partido to Reglas--><g id="link_Partido_Reglas"><path codeLine="5" d="M278.77,63.97 C253.79,86.78 227,119.89 227,157 C227,157 227,157 227,380.5 C227,411.2 252.76,435.76 276.4,451.83 " fill="none" id="Partido-backto-Reglas" style="stroke:#181818;stroke-width:1.0;"/><polygon fill="#181818" points="288.91,55.15,281.7574,56.0663,279.8522,63.0212,287.0048,62.1049,288.91,55.15" style="stroke:#181818;stroke-width:1.0;"/><polygon fill="#000000" points="231.9694,290.3529,234.9636,281.326,229.0858,281.29,231.9694,290.3529" style="stroke:#000000;stroke-width:1.0;"/><text fill="#000000" font-family="sans-serif" font-size="13" lengthAdjust="spacing" textLength="71" x="241" y="290.397">Sigue varias</text></g><!--MD5=[aaaf4ebb58c7da43ed507eb567f694f0]
reverse link Partido to Alineación--><g id="link_Partido_Alineación"><path codeLine="7" d="M365.88,48.85 C427.5,71.98 538.01,113.46 602.79,137.78 " fill="none" id="Partido-backto-Alineación" style="stroke:#181818;stroke-width:1.0;"/><polygon fill="#181818" points="361.17,47.08,368.1855,53.9925,365.8499,48.8403,371.002,46.5047,361.17,47.08" style="stroke:#181818;stroke-width:1.0;"/><polygon fill="#000000" points="507.3189,93.0959,514.7542,99.026,516.8199,93.5231,507.3189,93.0959" style="stroke:#000000;stroke-width:1.0;"/><text fill="#000000" font-family="sans-serif" font-size="13" lengthAdjust="spacing" textLength="46" x="521" y="99.897">Disputa</text></g><!--MD5=[ea786ad636cecd8bb926a58272a134e2]
reverse link Partido to Arbitro--><g id="link_Partido_Arbitro"><path codeLine="8" d="M328.51,60.24 C341.86,110.47 369.5,214.43 381.83,260.8 " fill="none" id="Partido-backto-Arbitro" style="stroke:#181818;stroke-width:1.0;"/><polygon fill="#181818" points="327.18,55.26,325.6304,64.9862,328.4665,60.0916,333.3611,62.9277,327.18,55.26" style="stroke:#181818;stroke-width:1.0;"/><polygon fill="#000000" points="363.7153,153.5209,363.199,163.0174,368.8796,161.5072,363.7153,153.5209" style="stroke:#000000;stroke-width:1.0;"/><text fill="#000000" font-family="sans-serif" font-size="13" lengthAdjust="spacing" textLength="35" x="374" y="163.397">Dirige</text></g><!--MD5=[530aa46282f4da8dbe1535d9f6a14400]
reverse link Alineación to Equipo--><g id="link_Alineación_Equipo"><path codeLine="10" d="M663.67,187.12 C671.33,209.37 681.89,240.07 689.06,260.91 " fill="none" id="Alineación-backto-Equipo" style="stroke:#181818;stroke-width:1.0;"/><polygon fill="#181818" points="661.99,182.22,661.1388,192.032,663.6182,186.9475,668.7027,189.4269,661.99,182.22" style="stroke:#181818;stroke-width:1.0;"/><polygon fill="#000000" points="681.3732,217.1251,681.5371,226.6342,687.0951,224.7218,681.3732,217.1251" style="stroke:#000000;stroke-width:1.0;"/><text fill="#000000" font-family="sans-serif" font-size="13" lengthAdjust="spacing" textLength="53" x="692" y="226.897">Presenta</text></g><!--MD5=[ccf15120d0cabc61717e62a9929d6cba]
link Jugador to Equipo--><g id="link_Jugador_Equipo"><path codeLine="12" d="M547.61,285 C576.07,285 613.69,285 644.07,285 " fill="none" id="Jugador-to-Equipo" style="stroke:#181818;stroke-width:1.0;"/><polygon fill="#181818" points="657.45,285,651.45,281,645.45,285,651.45,289,657.45,285" style="stroke:#181818;stroke-width:1.0;"/><polygon fill="#000000" points="575,272.853,565.9549,269.9141,565.9549,275.7919,575,272.853" style="stroke:#000000;stroke-width:1.0;"/><text fill="#000000" font-family="sans-serif" font-size="13" lengthAdjust="spacing" textLength="60" x="579" y="277.897">Pertenece</text></g><!--MD5=[44cb33e582228e5ff3e7652e07895227]
reverse link Persona to Arbitro--><g id="link_Persona_Arbitro"><path codeLine="14" d="M452.41,198.35 C436.94,218.92 418.53,243.4 405.37,260.91 " fill="none" id="Persona-backto-Arbitro" style="stroke:#181818;stroke-width:1.0;"/><polygon fill="none" points="446.92,194,464.54,182.22,458.11,202.41,446.92,194" style="stroke:#181818;stroke-width:1.0;"/></g><!--MD5=[35b3eacce95ee56209d271039b38fc61]
reverse link Persona to Jugador--><g id="link_Persona_Jugador"><path codeLine="15" d="M489.93,202.09 C493.56,221.83 497.72,244.45 500.75,260.91 " fill="none" id="Persona-backto-Jugador" style="stroke:#181818;stroke-width:1.0;"/><polygon fill="none" points="483.01,203.16,486.27,182.22,496.78,200.62,483.01,203.16" style="stroke:#181818;stroke-width:1.0;"/></g><!--MD5=[9381b2320955c04d6988be9215c754fe]
link Arbitro to Reglas--><g id="link_Arbitro_Reglas"><path codeLine="18" d="M373.31,309.14 C363.37,325.61 350.54,348.53 342,370 C331.41,396.62 323.74,428.77 319.35,449.99 " fill="none" id="Arbitro-Reglas" style="stroke:#181818;stroke-width:1.0;stroke-dasharray:7.0,7.0;"/><polygon fill="#000000" points="345.2113,384.5221,351.1915,377.127,345.7027,375.0242,345.2113,384.5221" style="stroke:#000000;stroke-width:1.0;"/><text fill="#000000" font-family="sans-serif" font-size="13" lengthAdjust="spacing" textLength="153" x="356" y="384.897">Valida el cumplimiento de</text></g><!--MD5=[afbb80b66ae83dda174927c5ac2e565d]
link Jugador to Reglas--><g id="link_Jugador_Reglas"><path codeLine="19" d="M514.84,309.34 C522.57,331.67 529.68,365.37 514,389 C478.35,442.75 400.77,462.19 353.7,469.16 " fill="none" id="Jugador-Reglas" style="stroke:#181818;stroke-width:1.0;stroke-dasharray:7.0,7.0;"/><polygon fill="#000000" points="522.45,383.374,530.9416,379.0912,526.8025,374.9178,522.45,383.374" style="stroke:#000000;stroke-width:1.0;"/><text fill="#000000" font-family="sans-serif" font-size="13" lengthAdjust="spacing" textLength="84" x="535" y="384.897">Debe respetar</text></g><!--MD5=[987a0e11f77fdb431cad4fe87b9a9262]
@startuml

Partido  -l-> Encuentro: Se desarrolla en un >
Encuentro *-d- Períodos : Consta de uno o varios >

Partido *- - Reglas : Sigue varias >

Partido <- - Alineación  : Disputa <
Partido <- - - Arbitro  : Dirige <

Equipo -u-> Alineación : Presenta >

Jugador -r-* Equipo : Pertenece >

Persona <|- - Arbitro
Persona <|- - Jugador


Arbitro ... Reglas : Valida el cumplimiento de >
Jugador ... Reglas : Debe respetar >

@enduml

PlantUML version 1.2022.7(Mon Aug 22 19:01:30 CEST 2022)
(GPL source distribution)
Java Runtime: OpenJDK Runtime Environment
JVM: OpenJDK 64-Bit Server VM
Default Encoding: UTF-8
Language: es
Country: ES
--></g></svg>