<?xml version="1.0" encoding="us-ascii" standalone="no"?><svg xmlns="http://www.w3.org/2000/svg" xmlns:xlink="http://www.w3.org/1999/xlink" contentStyleType="text/css" height="862px" preserveAspectRatio="none" style="width:837px;height:862px;background:#FFFFFF;" version="1.1" viewBox="0 0 837 862" width="837px" zoomAndPan="magnify"><defs/><g><!--class Persona--><g id="elem_Persona"><rect codeLine="2" fill="#F1F1F1" height="124.2717" id="Persona" rx="2.5" ry="2.5" style="stroke:#181818;stroke-width:0.5;" width="160" x="352" y="257.94"/><ellipse cx="402.25" cy="273.94" fill="#A9DCDF" rx="11" ry="11" style="stroke:#181818;stroke-width:1.0;"/><path d="M397.4219,279.69 L400.7656,267.5025 L403.9063,267.5025 L407.2813,279.69 L404.8125,279.69 L404.0781,276.6744 L400.5625,276.6744 L399.8125,279.69 L397.4219,279.69 Z M401.8281,271.6431 L401.0781,274.6431 L403.5938,274.6431 L402.875,271.6431 Q402.7344,271.065 402.6094,270.5181 Q402.4844,269.9556 402.3438,269.3775 Q402.2344,269.9556 402.0938,270.5181 Q401.9531,271.065 401.8281,271.6431 Z " fill="#000000"/><text fill="#000000" font-family="sans-serif" font-size="14" font-style="italic" lengthAdjust="spacing" textLength="51" x="422.75" y="279.372">Persona</text><line style="stroke:#181818;stroke-width:0.5;" x1="353" x2="511" y1="289.94" y2="289.94"/><rect fill="none" height="6" style="stroke:#C82930;stroke-width:1.0;" width="6" x="360" y="301.974"/><text fill="#000000" font-family="sans-serif" font-size="14" lengthAdjust="spacing" textLength="102" x="372" y="308.9059">nombre: String</text><rect fill="none" height="6" style="stroke:#C82930;stroke-width:1.0;" width="6" x="360" y="321.0419"/><text fill="#000000" font-family="sans-serif" font-size="14" lengthAdjust="spacing" textLength="71" x="372" y="327.9739">dni: String</text><line style="stroke:#181818;stroke-width:0.5;" x1="353" x2="511" y1="336.0758" y2="336.0758"/><ellipse cx="363" cy="351.1098" fill="#84BE84" rx="3" ry="3" style="stroke:#038048;stroke-width:1.0;"/><text fill="#000000" font-family="sans-serif" font-size="14" lengthAdjust="spacing" textLength="134" x="372" y="355.0418">getNombre(): String</text><ellipse cx="363" cy="370.1777" fill="#84BE84" rx="3" ry="3" style="stroke:#038048;stroke-width:1.0;"/><text fill="#000000" font-family="sans-serif" font-size="14" lengthAdjust="spacing" textLength="102" x="372" y="374.1097">getDni(): String</text></g><!--class Encuentro--><g id="elem_Encuentro"><rect codeLine="9" fill="#F1F1F1" height="143.3396" id="Encuentro" rx="2.5" ry="2.5" style="stroke:#181818;stroke-width:0.5;" width="139" x="68.5" y="16.53"/><ellipse cx="100.6" cy="32.53" fill="#ADD1B2" rx="11" ry="11" style="stroke:#181818;stroke-width:1.0;"/><path d="M100.0688,39.4519 Q98.3188,39.4519 97.1781,38.7175 Q96.0531,37.9675 95.4906,36.6237 Q94.9438,35.2644 94.9438,33.4675 Q94.9438,31.4362 95.6,29.9831 Q96.2563,28.53 97.5375,27.7487 Q98.8188,26.9675 100.6938,26.9675 Q101.5844,26.9675 102.2563,27.155 Q102.9281,27.3269 103.6156,27.6706 L102.8031,29.6862 Q102.1781,29.3737 101.6313,29.2487 Q101.1,29.1237 100.6156,29.1237 Q99.4438,29.1237 98.7406,29.655 Q98.0375,30.1862 97.7406,31.1394 Q97.4438,32.0925 97.4438,33.3581 Q97.4438,35.3737 98.1625,36.3425 Q98.8813,37.2956 100.475,37.2956 Q101.0688,37.2956 101.6938,37.1394 Q102.3188,36.9831 103.1469,36.6081 L103.1469,38.8269 Q102.4125,39.1394 101.6156,39.2956 Q100.8344,39.4519 100.0688,39.4519 Z " fill="#000000"/><text fill="#000000" font-family="sans-serif" font-size="14" lengthAdjust="spacing" textLength="69" x="118.4" y="37.962">Encuentro</text><line style="stroke:#181818;stroke-width:0.5;" x1="69.5" x2="206.5" y1="48.53" y2="48.53"/><rect fill="none" height="6" style="stroke:#C82930;stroke-width:1.0;" width="6" x="76.5" y="60.564"/><text fill="#000000" font-family="sans-serif" font-size="14" lengthAdjust="spacing" textLength="113" x="88.5" y="67.4959">fechaInicio: Date</text><rect fill="none" height="6" style="stroke:#C82930;stroke-width:1.0;" width="6" x="76.5" y="79.6319"/><text fill="#000000" font-family="sans-serif" font-size="14" lengthAdjust="spacing" textLength="96" x="88.5" y="86.5639">fechaFin: Date</text><rect fill="none" height="6" style="stroke:#C82930;stroke-width:1.0;" width="6" x="76.5" y="98.6998"/><text fill="#000000" font-family="sans-serif" font-size="14" lengthAdjust="spacing" textLength="85" x="88.5" y="105.6318">lugar: String</text><line style="stroke:#181818;stroke-width:0.5;" x1="69.5" x2="206.5" y1="113.7338" y2="113.7338"/><ellipse cx="79.5" cy="128.7677" fill="#84BE84" rx="3" ry="3" style="stroke:#038048;stroke-width:1.0;"/><text fill="#000000" font-family="sans-serif" font-size="14" lengthAdjust="spacing" textLength="86" x="88.5" y="132.6997">iniciar(): void</text><ellipse cx="79.5" cy="147.8356" fill="#84BE84" rx="3" ry="3" style="stroke:#038048;stroke-width:1.0;"/><text fill="#000000" font-family="sans-serif" font-size="14" lengthAdjust="spacing" textLength="99" x="88.5" y="151.7676">finalizar(): void</text></g><!--class Partido--><g id="elem_Partido"><rect codeLine="17" fill="#F1F1F1" height="162.4075" id="Partido" rx="2.5" ry="2.5" style="stroke:#181818;stroke-width:0.5;" width="172" x="436" y="7"/><ellipse cx="493.75" cy="23" fill="#ADD1B2" rx="11" ry="11" style="stroke:#181818;stroke-width:1.0;"/><path d="M493.2188,29.9219 Q491.4688,29.9219 490.3281,29.1875 Q489.2031,28.4375 488.6406,27.0938 Q488.0938,25.7344 488.0938,23.9375 Q488.0938,21.9063 488.75,20.4531 Q489.4063,19 490.6875,18.2188 Q491.9688,17.4375 493.8438,17.4375 Q494.7344,17.4375 495.4063,17.625 Q496.0781,17.7969 496.7656,18.1406 L495.9531,20.1563 Q495.3281,19.8438 494.7813,19.7188 Q494.25,19.5938 493.7656,19.5938 Q492.5938,19.5938 491.8906,20.125 Q491.1875,20.6563 490.8906,21.6094 Q490.5938,22.5625 490.5938,23.8281 Q490.5938,25.8438 491.3125,26.8125 Q492.0313,27.7656 493.625,27.7656 Q494.2188,27.7656 494.8438,27.6094 Q495.4688,27.4531 496.2969,27.0781 L496.2969,29.2969 Q495.5625,29.6094 494.7656,29.7656 Q493.9844,29.9219 493.2188,29.9219 Z " fill="#000000"/><text fill="#000000" font-family="sans-serif" font-size="14" lengthAdjust="spacing" textLength="48" x="514.25" y="28.432">Partido</text><line style="stroke:#181818;stroke-width:0.5;" x1="437" x2="607" y1="39" y2="39"/><rect fill="none" height="6" style="stroke:#C82930;stroke-width:1.0;" width="6" x="444" y="51.034"/><text fill="#000000" font-family="sans-serif" font-size="14" lengthAdjust="spacing" textLength="141" x="456" y="57.9659">fechaHora: DateTime</text><rect fill="none" height="6" style="stroke:#C82930;stroke-width:1.0;" width="6" x="444" y="70.1019"/><text fill="#000000" font-family="sans-serif" font-size="14" lengthAdjust="spacing" textLength="113" x="456" y="77.0339">resultado: String</text><rect fill="none" height="6" style="stroke:#C82930;stroke-width:1.0;" width="6" x="444" y="89.1698"/><text fill="#000000" font-family="sans-serif" font-size="14" lengthAdjust="spacing" textLength="146" x="456" y="96.1018">estado: EstadoPartido</text><line style="stroke:#181818;stroke-width:0.5;" x1="437" x2="607" y1="104.2038" y2="104.2038"/><ellipse cx="447" cy="119.2377" fill="#84BE84" rx="3" ry="3" style="stroke:#038048;stroke-width:1.0;"/><text fill="#000000" font-family="sans-serif" font-size="14" lengthAdjust="spacing" textLength="86" x="456" y="123.1697">iniciar(): void</text><ellipse cx="447" cy="138.3056" fill="#84BE84" rx="3" ry="3" style="stroke:#038048;stroke-width:1.0;"/><text fill="#000000" font-family="sans-serif" font-size="14" lengthAdjust="spacing" textLength="99" x="456" y="142.2376">finalizar(): void</text><ellipse cx="447" cy="157.3735" fill="#84BE84" rx="3" ry="3" style="stroke:#038048;stroke-width:1.0;"/><text fill="#000000" font-family="sans-serif" font-size="14" lengthAdjust="spacing" textLength="125" x="456" y="161.3055">registrarGol(): void</text></g><!--class Periodos--><g id="elem_Periodos"><rect codeLine="26" fill="#F1F1F1" height="143.3396" id="Periodos" rx="2.5" ry="2.5" style="stroke:#181818;stroke-width:0.5;" width="176" x="7" y="248.4"/><ellipse cx="61.75" cy="264.4" fill="#ADD1B2" rx="11" ry="11" style="stroke:#181818;stroke-width:1.0;"/><path d="M61.2188,271.3219 Q59.4688,271.3219 58.3281,270.5875 Q57.2031,269.8375 56.6406,268.4938 Q56.0938,267.1344 56.0938,265.3375 Q56.0938,263.3063 56.75,261.8531 Q57.4063,260.4 58.6875,259.6188 Q59.9688,258.8375 61.8438,258.8375 Q62.7344,258.8375 63.4063,259.025 Q64.0781,259.1969 64.7656,259.5406 L63.9531,261.5563 Q63.3281,261.2438 62.7813,261.1188 Q62.25,260.9938 61.7656,260.9938 Q60.5938,260.9938 59.8906,261.525 Q59.1875,262.0563 58.8906,263.0094 Q58.5938,263.9625 58.5938,265.2281 Q58.5938,267.2438 59.3125,268.2125 Q60.0313,269.1656 61.625,269.1656 Q62.2188,269.1656 62.8438,269.0094 Q63.4688,268.8531 64.2969,268.4781 L64.2969,270.6969 Q63.5625,271.0094 62.7656,271.1656 Q61.9844,271.3219 61.2188,271.3219 Z " fill="#000000"/><text fill="#000000" font-family="sans-serif" font-size="14" lengthAdjust="spacing" textLength="58" x="82.25" y="269.832">Periodos</text><line style="stroke:#181818;stroke-width:0.5;" x1="8" x2="182" y1="280.4" y2="280.4"/><rect fill="none" height="6" style="stroke:#C82930;stroke-width:1.0;" width="6" x="15" y="292.434"/><text fill="#000000" font-family="sans-serif" font-size="14" lengthAdjust="spacing" textLength="79" x="27" y="299.3659">numero: int</text><rect fill="none" height="6" style="stroke:#C82930;stroke-width:1.0;" width="6" x="15" y="311.5019"/><text fill="#000000" font-family="sans-serif" font-size="14" lengthAdjust="spacing" textLength="86" x="27" y="318.4339">duracion: int</text><rect fill="none" height="6" style="stroke:#C82930;stroke-width:1.0;" width="6" x="15" y="330.5698"/><text fill="#000000" font-family="sans-serif" font-size="14" lengthAdjust="spacing" textLength="143" x="27" y="337.5018">tiempoExtra: boolean</text><line style="stroke:#181818;stroke-width:0.5;" x1="8" x2="182" y1="345.6038" y2="345.6038"/><ellipse cx="18" cy="360.6377" fill="#84BE84" rx="3" ry="3" style="stroke:#038048;stroke-width:1.0;"/><text fill="#000000" font-family="sans-serif" font-size="14" lengthAdjust="spacing" textLength="137" x="27" y="364.5697">iniciarPeriodo(): void</text><ellipse cx="18" cy="379.7056" fill="#84BE84" rx="3" ry="3" style="stroke:#038048;stroke-width:1.0;"/><text fill="#000000" font-family="sans-serif" font-size="14" lengthAdjust="spacing" textLength="150" x="27" y="383.6376">finalizarPeriodo(): void</text></g><!--class Arbitro--><g id="elem_Arbitro"><rect codeLine="34" fill="#F1F1F1" height="162.4075" id="Arbitro" rx="2.5" ry="2.5" style="stroke:#181818;stroke-width:0.5;" width="170" x="147" y="470.74"/><ellipse cx="204.25" cy="486.74" fill="#ADD1B2" rx="11" ry="11" style="stroke:#181818;stroke-width:1.0;"/><path d="M203.7188,493.6619 Q201.9688,493.6619 200.8281,492.9275 Q199.7031,492.1775 199.1406,490.8338 Q198.5938,489.4744 198.5938,487.6775 Q198.5938,485.6463 199.25,484.1931 Q199.9063,482.74 201.1875,481.9588 Q202.4688,481.1775 204.3438,481.1775 Q205.2344,481.1775 205.9063,481.365 Q206.5781,481.5369 207.2656,481.8806 L206.4531,483.8963 Q205.8281,483.5838 205.2813,483.4588 Q204.75,483.3338 204.2656,483.3338 Q203.0938,483.3338 202.3906,483.865 Q201.6875,484.3963 201.3906,485.3494 Q201.0938,486.3025 201.0938,487.5681 Q201.0938,489.5838 201.8125,490.5525 Q202.5313,491.5056 204.125,491.5056 Q204.7188,491.5056 205.3438,491.3494 Q205.9688,491.1931 206.7969,490.8181 L206.7969,493.0369 Q206.0625,493.3494 205.2656,493.5056 Q204.4844,493.6619 203.7188,493.6619 Z " fill="#000000"/><text fill="#000000" font-family="sans-serif" font-size="14" lengthAdjust="spacing" textLength="47" x="224.75" y="492.172">Arbitro</text><line style="stroke:#181818;stroke-width:0.5;" x1="148" x2="316" y1="502.74" y2="502.74"/><rect fill="none" height="6" style="stroke:#C82930;stroke-width:1.0;" width="6" x="155" y="514.774"/><text fill="#000000" font-family="sans-serif" font-size="14" lengthAdjust="spacing" textLength="100" x="167" y="521.7059">licencia: String</text><rect fill="none" height="6" style="stroke:#C82930;stroke-width:1.0;" width="6" x="155" y="533.8419"/><text fill="#000000" font-family="sans-serif" font-size="14" lengthAdjust="spacing" textLength="112" x="167" y="540.7739">categoria: String</text><rect fill="none" height="6" style="stroke:#C82930;stroke-width:1.0;" width="6" x="155" y="552.9098"/><text fill="#000000" font-family="sans-serif" font-size="14" lengthAdjust="spacing" textLength="104" x="167" y="559.8418">experiencia: int</text><line style="stroke:#181818;stroke-width:0.5;" x1="148" x2="316" y1="567.9438" y2="567.9438"/><ellipse cx="158" cy="582.9777" fill="#84BE84" rx="3" ry="3" style="stroke:#038048;stroke-width:1.0;"/><text fill="#000000" font-family="sans-serif" font-size="14" lengthAdjust="spacing" textLength="134" x="167" y="586.9097">dirigirPartido(): void</text><ellipse cx="158" cy="602.0456" fill="#84BE84" rx="3" ry="3" style="stroke:#038048;stroke-width:1.0;"/><text fill="#000000" font-family="sans-serif" font-size="14" lengthAdjust="spacing" textLength="144" x="167" y="605.9776">mostrarTarjeta(): void</text><ellipse cx="158" cy="621.1135" fill="#84BE84" rx="3" ry="3" style="stroke:#038048;stroke-width:1.0;"/><text fill="#000000" font-family="sans-serif" font-size="14" lengthAdjust="spacing" textLength="137" x="167" y="625.0455">validarJugada(): void</text></g><!--class Jugador--><g id="elem_Jugador"><rect codeLine="43" fill="#F1F1F1" height="162.4075" id="Jugador" rx="2.5" ry="2.5" style="stroke:#181818;stroke-width:0.5;" width="161" x="351.5" y="470.74"/><ellipse cx="401.25" cy="486.74" fill="#ADD1B2" rx="11" ry="11" style="stroke:#181818;stroke-width:1.0;"/><path d="M400.7188,493.6619 Q398.9688,493.6619 397.8281,492.9275 Q396.7031,492.1775 396.1406,490.8338 Q395.5938,489.4744 395.5938,487.6775 Q395.5938,485.6463 396.25,484.1931 Q396.9063,482.74 398.1875,481.9588 Q399.4688,481.1775 401.3438,481.1775 Q402.2344,481.1775 402.9063,481.365 Q403.5781,481.5369 404.2656,481.8806 L403.4531,483.8963 Q402.8281,483.5838 402.2813,483.4588 Q401.75,483.3338 401.2656,483.3338 Q400.0938,483.3338 399.3906,483.865 Q398.6875,484.3963 398.3906,485.3494 Q398.0938,486.3025 398.0938,487.5681 Q398.0938,489.5838 398.8125,490.5525 Q399.5313,491.5056 401.125,491.5056 Q401.7188,491.5056 402.3438,491.3494 Q402.9688,491.1931 403.7969,490.8181 L403.7969,493.0369 Q403.0625,493.3494 402.2656,493.5056 Q401.4844,493.6619 400.7188,493.6619 Z " fill="#000000"/><text fill="#000000" font-family="sans-serif" font-size="14" lengthAdjust="spacing" textLength="53" x="421.75" y="492.172">Jugador</text><line style="stroke:#181818;stroke-width:0.5;" x1="352.5" x2="511.5" y1="502.74" y2="502.74"/><rect fill="none" height="6" style="stroke:#C82930;stroke-width:1.0;" width="6" x="359.5" y="514.774"/><text fill="#000000" font-family="sans-serif" font-size="14" lengthAdjust="spacing" textLength="68" x="371.5" y="521.7059">dorsal: int</text><rect fill="none" height="6" style="stroke:#C82930;stroke-width:1.0;" width="6" x="359.5" y="533.8419"/><text fill="#000000" font-family="sans-serif" font-size="14" lengthAdjust="spacing" textLength="105" x="371.5" y="540.7739">posicion: String</text><rect fill="none" height="6" style="stroke:#C82930;stroke-width:1.0;" width="6" x="359.5" y="552.9098"/><text fill="#000000" font-family="sans-serif" font-size="14" lengthAdjust="spacing" textLength="101" x="371.5" y="559.8418">activo: boolean</text><line style="stroke:#181818;stroke-width:0.5;" x1="352.5" x2="511.5" y1="567.9438" y2="567.9438"/><ellipse cx="362.5" cy="582.9777" fill="#84BE84" rx="3" ry="3" style="stroke:#038048;stroke-width:1.0;"/><text fill="#000000" font-family="sans-serif" font-size="14" lengthAdjust="spacing" textLength="80" x="371.5" y="586.9097">jugar(): void</text><ellipse cx="362.5" cy="602.0456" fill="#84BE84" rx="3" ry="3" style="stroke:#038048;stroke-width:1.0;"/><text fill="#000000" font-family="sans-serif" font-size="14" lengthAdjust="spacing" textLength="114" x="371.5" y="605.9776">marcarGol(): void</text><ellipse cx="362.5" cy="621.1135" fill="#84BE84" rx="3" ry="3" style="stroke:#038048;stroke-width:1.0;"/><text fill="#000000" font-family="sans-serif" font-size="14" lengthAdjust="spacing" textLength="135" x="371.5" y="625.0455">recibirTarjeta(): void</text></g><!--class Equipo--><g id="elem_Equipo"><rect codeLine="52" fill="#F1F1F1" height="143.3396" id="Equipo" rx="2.5" ry="2.5" style="stroke:#181818;stroke-width:0.5;" width="172" x="638" y="480.28"/><ellipse cx="696.25" cy="496.28" fill="#ADD1B2" rx="11" ry="11" style="stroke:#181818;stroke-width:1.0;"/><path d="M695.7188,503.2019 Q693.9688,503.2019 692.8281,502.4675 Q691.7031,501.7175 691.1406,500.3738 Q690.5938,499.0144 690.5938,497.2175 Q690.5938,495.1863 691.25,493.7331 Q691.9063,492.28 693.1875,491.4988 Q694.4688,490.7175 696.3438,490.7175 Q697.2344,490.7175 697.9063,490.905 Q698.5781,491.0769 699.2656,491.4206 L698.4531,493.4363 Q697.8281,493.1238 697.2813,492.9988 Q696.75,492.8738 696.2656,492.8738 Q695.0938,492.8738 694.3906,493.405 Q693.6875,493.9363 693.3906,494.8894 Q693.0938,495.8425 693.0938,497.1081 Q693.0938,499.1238 693.8125,500.0925 Q694.5313,501.0456 696.125,501.0456 Q696.7188,501.0456 697.3438,500.8894 Q697.9688,500.7331 698.7969,500.3581 L698.7969,502.5769 Q698.0625,502.8894 697.2656,503.0456 Q696.4844,503.2019 695.7188,503.2019 Z " fill="#000000"/><text fill="#000000" font-family="sans-serif" font-size="14" lengthAdjust="spacing" textLength="47" x="716.75" y="501.712">Equipo</text><line style="stroke:#181818;stroke-width:0.5;" x1="639" x2="809" y1="512.28" y2="512.28"/><rect fill="none" height="6" style="stroke:#C82930;stroke-width:1.0;" width="6" x="646" y="524.314"/><text fill="#000000" font-family="sans-serif" font-size="14" lengthAdjust="spacing" textLength="102" x="658" y="531.2459">nombre: String</text><rect fill="none" height="6" style="stroke:#C82930;stroke-width:1.0;" width="6" x="646" y="543.3819"/><text fill="#000000" font-family="sans-serif" font-size="14" lengthAdjust="spacing" textLength="125" x="658" y="550.3139">entrenador: String</text><rect fill="none" height="6" style="stroke:#C82930;stroke-width:1.0;" width="6" x="646" y="562.4498"/><text fill="#000000" font-family="sans-serif" font-size="14" lengthAdjust="spacing" textLength="95" x="658" y="569.3818">ciudad: String</text><line style="stroke:#181818;stroke-width:0.5;" x1="639" x2="809" y1="577.4838" y2="577.4838"/><ellipse cx="649" cy="592.5177" fill="#84BE84" rx="3" ry="3" style="stroke:#038048;stroke-width:1.0;"/><text fill="#000000" font-family="sans-serif" font-size="14" lengthAdjust="spacing" textLength="137" x="658" y="596.4497">formarEquipo(): void</text><ellipse cx="649" cy="611.5856" fill="#84BE84" rx="3" ry="3" style="stroke:#038048;stroke-width:1.0;"/><text fill="#000000" font-family="sans-serif" font-size="14" lengthAdjust="spacing" textLength="146" x="658" y="615.5176">realizarCambio(): void</text></g><!--class Alineacion--><g id="elem_Alineacion"><rect codeLine="60" fill="#F1F1F1" height="124.2717" id="Alineacion" rx="2.5" ry="2.5" style="stroke:#181818;stroke-width:0.5;" width="212" x="618" y="257.94"/><ellipse cx="684.75" cy="273.94" fill="#ADD1B2" rx="11" ry="11" style="stroke:#181818;stroke-width:1.0;"/><path d="M684.2188,280.8619 Q682.4688,280.8619 681.3281,280.1275 Q680.2031,279.3775 679.6406,278.0338 Q679.0938,276.6744 679.0938,274.8775 Q679.0938,272.8463 679.75,271.3931 Q680.4063,269.94 681.6875,269.1588 Q682.9688,268.3775 684.8438,268.3775 Q685.7344,268.3775 686.4063,268.565 Q687.0781,268.7369 687.7656,269.0806 L686.9531,271.0963 Q686.3281,270.7838 685.7813,270.6588 Q685.25,270.5338 684.7656,270.5338 Q683.5938,270.5338 682.8906,271.065 Q682.1875,271.5963 681.8906,272.5494 Q681.5938,273.5025 681.5938,274.7681 Q681.5938,276.7838 682.3125,277.7525 Q683.0313,278.7056 684.625,278.7056 Q685.2188,278.7056 685.8438,278.5494 Q686.4688,278.3931 687.2969,278.0181 L687.2969,280.2369 Q686.5625,280.5494 685.7656,280.7056 Q684.9844,280.8619 684.2188,280.8619 Z " fill="#000000"/><text fill="#000000" font-family="sans-serif" font-size="14" lengthAdjust="spacing" textLength="70" x="705.25" y="279.372">Alineacion</text><line style="stroke:#181818;stroke-width:0.5;" x1="619" x2="829" y1="289.94" y2="289.94"/><rect fill="none" height="6" style="stroke:#C82930;stroke-width:1.0;" width="6" x="626" y="301.974"/><text fill="#000000" font-family="sans-serif" font-size="14" lengthAdjust="spacing" textLength="117" x="638" y="308.9059">formacion: String</text><rect fill="none" height="6" style="stroke:#C82930;stroke-width:1.0;" width="6" x="626" y="321.0419"/><text fill="#000000" font-family="sans-serif" font-size="14" lengthAdjust="spacing" textLength="76" x="638" y="327.9739">fecha: Date</text><line style="stroke:#181818;stroke-width:0.5;" x1="619" x2="829" y1="336.0758" y2="336.0758"/><ellipse cx="629" cy="351.1098" fill="#84BE84" rx="3" ry="3" style="stroke:#038048;stroke-width:1.0;"/><text fill="#000000" font-family="sans-serif" font-size="14" lengthAdjust="spacing" textLength="186" x="638" y="355.0418">validarAlineacion(): boolean</text><ellipse cx="629" cy="370.1777" fill="#84BE84" rx="3" ry="3" style="stroke:#038048;stroke-width:1.0;"/><text fill="#000000" font-family="sans-serif" font-size="14" lengthAdjust="spacing" textLength="140" x="638" y="374.1097">incluirJugador(): void</text></g><!--class Reglas--><g id="elem_Reglas"><rect codeLine="67" fill="#F1F1F1" height="143.3396" id="Reglas" rx="2.5" ry="2.5" style="stroke:#181818;stroke-width:0.5;" width="212" x="326" y="712.15"/><ellipse cx="405.25" cy="728.15" fill="#ADD1B2" rx="11" ry="11" style="stroke:#181818;stroke-width:1.0;"/><path d="M404.7188,735.0719 Q402.9688,735.0719 401.8281,734.3375 Q400.7031,733.5875 400.1406,732.2438 Q399.5938,730.8844 399.5938,729.0875 Q399.5938,727.0563 400.25,725.6031 Q400.9063,724.15 402.1875,723.3688 Q403.4688,722.5875 405.3438,722.5875 Q406.2344,722.5875 406.9063,722.775 Q407.5781,722.9469 408.2656,723.2906 L407.4531,725.3063 Q406.8281,724.9938 406.2813,724.8688 Q405.75,724.7438 405.2656,724.7438 Q404.0938,724.7438 403.3906,725.275 Q402.6875,725.8063 402.3906,726.7594 Q402.0938,727.7125 402.0938,728.9781 Q402.0938,730.9938 402.8125,731.9625 Q403.5313,732.9156 405.125,732.9156 Q405.7188,732.9156 406.3438,732.7594 Q406.9688,732.6031 407.7969,732.2281 L407.7969,734.4469 Q407.0625,734.7594 406.2656,734.9156 Q405.4844,735.0719 404.7188,735.0719 Z " fill="#000000"/><text fill="#000000" font-family="sans-serif" font-size="14" lengthAdjust="spacing" textLength="45" x="425.75" y="733.582">Reglas</text><line style="stroke:#181818;stroke-width:0.5;" x1="327" x2="537" y1="744.15" y2="744.15"/><rect fill="none" height="6" style="stroke:#C82930;stroke-width:1.0;" width="6" x="334" y="756.184"/><text fill="#000000" font-family="sans-serif" font-size="14" lengthAdjust="spacing" textLength="102" x="346" y="763.1159">deporte: String</text><rect fill="none" height="6" style="stroke:#C82930;stroke-width:1.0;" width="6" x="334" y="775.2519"/><text fill="#000000" font-family="sans-serif" font-size="14" lengthAdjust="spacing" textLength="98" x="346" y="782.1839">version: String</text><rect fill="none" height="6" style="stroke:#C82930;stroke-width:1.0;" width="6" x="334" y="794.3198"/><text fill="#000000" font-family="sans-serif" font-size="14" lengthAdjust="spacing" textLength="127" x="346" y="801.2518">descripcion: String</text><line style="stroke:#181818;stroke-width:0.5;" x1="327" x2="537" y1="809.3538" y2="809.3538"/><ellipse cx="337" cy="824.3877" fill="#84BE84" rx="3" ry="3" style="stroke:#038048;stroke-width:1.0;"/><text fill="#000000" font-family="sans-serif" font-size="14" lengthAdjust="spacing" textLength="154" x="346" y="828.3197">aplicarRegla(): boolean</text><ellipse cx="337" cy="843.4556" fill="#84BE84" rx="3" ry="3" style="stroke:#038048;stroke-width:1.0;"/><text fill="#000000" font-family="sans-serif" font-size="14" lengthAdjust="spacing" textLength="186" x="346" y="847.3876">determinarSancion(): String</text></g><!--reverse link Encuentro to Partido--><g id="link_Encuentro_Partido"><path codeLine="75" d="M213.98,88.2 C278.02,88.2 366.97,88.2 435.68,88.2 " fill="none" id="Encuentro-backto-Partido" style="stroke:#181818;stroke-width:1.0;"/><polygon fill="#181818" points="207.98,88.2,216.98,92.2,212.98,88.2,216.98,84.2,207.98,88.2" style="stroke:#181818;stroke-width:1.0;"/><polygon fill="#000000" points="267.75,76.053,276.7951,78.9919,276.7951,73.1141,267.75,76.053" style="stroke:#000000;stroke-width:1.0;"/><text fill="#000000" font-family="sans-serif" font-size="13" lengthAdjust="spacing" textLength="93" x="281.75" y="81.097">se desarrolla en</text></g><!--reverse link Encuentro to Periodos--><g id="link_Encuentro_Periodos"><path codeLine="76" d="M99.3601,171.4598 C94.5501,184.2298 94.61,186.39 92,199.4 C88.88,214.99 87.89,231.95 88.04,248.07 " fill="none" id="Encuentro-backto-Periodos" style="stroke:#181818;stroke-width:1.0;"/><polygon fill="#181818" points="103.59,160.23,97.7318,164.4349,99.3601,171.4598,105.2183,167.2549,103.59,160.23" style="stroke:#181818;stroke-width:1.0;"/><polygon fill="#000000" points="96.2691,214.1993,100.4987,205.681,94.6839,204.8218,96.2691,214.1993" style="stroke:#000000;stroke-width:1.0;"/><text fill="#000000" font-family="sans-serif" font-size="13" lengthAdjust="spacing" textLength="135" x="106" y="214.297">consta de uno o varios</text></g><!--reverse link Partido to Reglas--><g id="link_Partido_Reglas"><path codeLine="77" d="M547.4592,181.0769 C576.2592,298.9069 611.24,511.59 538,682.15 C533.49,692.64 527.3,702.56 520.14,711.78 " fill="none" id="Partido-backto-Reglas" style="stroke:#181818;stroke-width:1.0;"/><polygon fill="#181818" points="544.61,169.42,542.149,176.1981,547.4592,181.0769,549.9202,174.2987,544.61,169.42" style="stroke:#181818;stroke-width:1.0;"/><polygon fill="#000000" points="585.103,436.5864,588.503,427.7044,582.6329,427.4022,585.103,436.5864" style="stroke:#000000;stroke-width:1.0;"/><text fill="#000000" font-family="sans-serif" font-size="13" lengthAdjust="spacing" textLength="70" x="594.36" y="436.637">sigue varias</text></g><!--reverse link Partido to Alineacion--><g id="link_Partido_Alineacion"><path codeLine="78" d="M596.6106,174.107 C621.9806,202.977 646.21,230.55 669.95,257.56 " fill="none" id="Partido-backto-Alineacion" style="stroke:#181818;stroke-width:1.0;"/><polygon fill="#181818" points="592.65,169.6,595.5863,179.001,595.9505,173.3559,601.5956,173.7201,592.65,169.6" style="stroke:#181818;stroke-width:1.0;"/><polygon fill="#000000" points="636.7894,205.4972,640.5527,214.2316,644.9679,210.3514,636.7894,205.4972" style="stroke:#000000;stroke-width:1.0;"/><text fill="#000000" font-family="sans-serif" font-size="13" lengthAdjust="spacing" textLength="45" x="649.09" y="214.297">disputa</text></g><!--reverse link Partido to Arbitro--><g id="link_Partido_Arbitro"><path codeLine="79" d="M430.4031,128.7319 C378.8231,155.2319 321.86,193.31 286,248.4 C242.85,314.7 231.57,405.67 229.71,470.51 " fill="none" id="Partido-backto-Arbitro" style="stroke:#181818;stroke-width:1.0;"/><polygon fill="#181818" points="435.74,125.99,425.9068,126.5449,431.2926,128.2749,429.5626,133.6607,435.74,125.99" style="stroke:#181818;stroke-width:1.0;"/><polygon fill="#000000" points="293.5318,316.1114,286.4174,322.423,291.486,325.3993,293.5318,316.1114" style="stroke:#000000;stroke-width:1.0;"/><text fill="#000000" font-family="sans-serif" font-size="13" lengthAdjust="spacing" textLength="34" x="300" y="325.467">dirige</text></g><!--reverse link Alineacion to Equipo--><g id="link_Alineacion_Equipo"><path codeLine="80" d="M724,388.67 C724,418.6 724,448.72 724,479.81 " fill="none" id="Alineacion-backto-Equipo" style="stroke:#181818;stroke-width:1.0;"/><polygon fill="#181818" points="724,382.67,720,391.67,724,387.67,728,391.67,724,382.67" style="stroke:#181818;stroke-width:1.0;"/><polygon fill="#000000" points="729,426.593,726.0611,435.6381,731.9389,435.6381,729,426.593" style="stroke:#000000;stroke-width:1.0;"/><text fill="#000000" font-family="sans-serif" font-size="13" lengthAdjust="spacing" textLength="53" x="738" y="436.637">presenta</text></g><!--link Jugador to Equipo--><g id="link_Jugador_Equipo"><path codeLine="81" d="M512.95,551.95 C551.69,551.95 586.1,551.95 625.53,551.95 " fill="none" id="Jugador-to-Equipo" style="stroke:#181818;stroke-width:1.0;"/><polygon fill="#181818" points="637.53,551.95,631.53,547.95,625.53,551.95,631.53,555.95,637.53,551.95" style="stroke:#181818;stroke-width:1.0;"/><polygon fill="#000000" points="547.75,539.803,538.7049,536.8641,538.7049,542.7419,547.75,539.803" style="stroke:#000000;stroke-width:1.0;"/><text fill="#000000" font-family="sans-serif" font-size="13" lengthAdjust="spacing" textLength="60" x="551.75" y="544.847">pertenece</text></g><!--reverse link Persona to Arbitro--><g id="link_Persona_Arbitro"><path codeLine="83" d="M366.5854,396.25 C343.0954,423.25 327.04,441.71 301.94,470.56 " fill="none" id="Persona-backto-Arbitro" style="stroke:#181818;stroke-width:1.0;"/><polygon fill="none" points="378.4,382.67,362.0588,392.3118,371.1121,400.1882,378.4,382.67" style="stroke:#181818;stroke-width:1.0;"/></g><!--reverse link Persona to Jugador--><g id="link_Persona_Jugador"><path codeLine="84" d="M432,400.67 C432,427.67 432,441.71 432,470.56 " fill="none" id="Persona-backto-Jugador" style="stroke:#181818;stroke-width:1.0;"/><polygon fill="none" points="432,382.67,426,400.67,438,400.67,432,382.67" style="stroke:#181818;stroke-width:1.0;"/></g><!--link Arbitro to Reglas--><g id="link_Arbitro_Reglas"><path codeLine="86" d="M245.87,633.44 C251.42,650.65 259.17,667.92 270,682.15 C284.94,701.78 299.907,715.1829 320.707,729.0429 " fill="none" id="Arbitro-to-Reglas" style="stroke:#181818;stroke-width:1.0;stroke-dasharray:7.0,7.0;"/><polygon fill="#181818" points="325.7,732.37,320.4285,724.0507,321.5391,729.5974,315.9924,730.7081,325.7,732.37" style="stroke:#181818;stroke-width:1.0;"/><polygon fill="#000000" points="278.082,676.9402,274.8208,668.0062,270.1924,671.6293,278.082,676.9402" style="stroke:#000000;stroke-width:1.0;"/><text fill="#000000" font-family="sans-serif" font-size="13" lengthAdjust="spacing" textLength="139" x="284" y="678.047">valida cumplimiento de</text></g><!--link Jugador to Reglas--><g id="link_Jugador_Reglas"><path codeLine="87" d="M432,633.35 C432,658.85 432,680.86 432,705.67 " fill="none" id="Jugador-to-Reglas" style="stroke:#181818;stroke-width:1.0;stroke-dasharray:7.0,7.0;"/><polygon fill="#181818" points="432,711.67,436,702.67,432,706.67,428,702.67,432,711.67" style="stroke:#181818;stroke-width:1.0;"/><polygon fill="#000000" points="437,678.003,439.9389,668.9579,434.0611,668.9579,437,678.003" style="stroke:#000000;stroke-width:1.0;"/><text fill="#000000" font-family="sans-serif" font-size="13" lengthAdjust="spacing" textLength="83" x="446" y="678.047">debe respetar</text></g><!--SRC=[ZLHBRjqm3Do_KmXPjGcS0mH5WA99VuiYQ781Mk9p6SYYIyiFGJztBoN_P2S1kde9JSsCXaD1tKS16utrqFVc3gNd0ERtmPWgS5iBNfdxA1IQL761Ydyl6epVSi-RjxloJQ2YzlTm6E5lWnqmHE6Hu8Zs1tm9P8clp0r4N8eVAQmLFpGW9G6b8o29uSJaKkb80JpzAeeBwHr895TIVcQ14Vw1samXs0y-WkFojjYFbTlyEy7yDxyM1HjAziedzY_eGY5st4zc3osAab68sUb1fq8Sba8aR3k-VOf9Uiti4KAXPG9xKTB-swBWlTIq3CEJnQ1GfGDMBMfOjaLywXHmwXtLNJWIQaWcZqeLBMS77a0UCKBvvQJg7CXNdQw3v-9odMKKft_qu1SpEkvfT6ULfI6c4s-yUKp1sOW1iTjfv2bPgkcPmZMqFmVg-BMLI776a9HkZAF1WIipUsHHzX5hopuEwGEqDRqq8qy1SnIc02US_TrpgfU5cPrTZoROJMQi7qWcXvzpViT6VoVdiME9cokVz97O2N3OMw5kf-i2EaqLICRRQN0OKLgDgDn3c3MkxyMyj9MlhejduygSzMYK3KJOUp0OpFNPOMquhrorRfQsMmwwldh4384DcnFejpuTcYdEgsg-SOAdPi3S1RchyByQLCjyIbiTzTsWsAbhsYHjsVVeOc3MECOeWnIWsjFfwwFgCz2S-aggypbvgGLr1W5jHZhCh_IxFofzejuM9vZ38kpoyhguv1WGOuTM1zJgBaTE3XNystw7DHfLsUc2I6hx1m00]--></g></svg>