<?xml version="1.0" encoding="us-ascii" standalone="no"?><svg xmlns="http://www.w3.org/2000/svg" xmlns:xlink="http://www.w3.org/1999/xlink" contentStyleType="text/css" height="228px" preserveAspectRatio="none" style="width:901px;height:228px;background:#FFFFFF;" version="1.1" viewBox="0 0 901 228" width="901px" zoomAndPan="magnify"><defs/><g><!--class Reglas--><g id="elem_Reglas"><rect codeLine="4" fill="#F1F1F1" height="48" id="Reglas" rx="2.5" ry="2.5" style="stroke:#181818;stroke-width:0.5;" width="160" x="734" y="90"/><ellipse cx="749" cy="106" fill="#ADD1B2" rx="11" ry="11" style="stroke:#181818;stroke-width:1.0;"/><path d="M748.4688,112.9219 Q746.7188,112.9219 745.5781,112.1875 Q744.4531,111.4375 743.8906,110.0938 Q743.3438,108.7344 743.3438,106.9375 Q743.3438,104.9063 744,103.4531 Q744.6563,102 745.9375,101.2188 Q747.2188,100.4375 749.0938,100.4375 Q749.9844,100.4375 750.6563,100.625 Q751.3281,100.7969 752.0156,101.1406 L751.2031,103.1563 Q750.5781,102.8438 750.0313,102.7188 Q749.5,102.5938 749.0156,102.5938 Q747.8438,102.5938 747.1406,103.125 Q746.4375,103.6563 746.1406,104.6094 Q745.8438,105.5625 745.8438,106.8281 Q745.8438,108.8438 746.5625,109.8125 Q747.2813,110.7656 748.875,110.7656 Q749.4688,110.7656 750.0938,110.6094 Q750.7188,110.4531 751.5469,110.0781 L751.5469,112.2969 Q750.8125,112.6094 750.0156,112.7656 Q749.2344,112.9219 748.4688,112.9219 Z " fill="#000000"/><text fill="#000000" font-family="sans-serif" font-size="14" lengthAdjust="spacing" textLength="128" x="763" y="111.432">las reglas de juego</text><line style="stroke:#181818;stroke-width:0.5;" x1="735" x2="893" y1="122" y2="122"/><line style="stroke:#181818;stroke-width:0.5;" x1="735" x2="893" y1="130" y2="130"/></g><!--class Partido--><g id="elem_Partido"><rect codeLine="5" fill="#F1F1F1" height="48" id="Partido" rx="2.5" ry="2.5" style="stroke:#181818;stroke-width:0.5;" width="154" x="510" y="90"/><ellipse cx="525" cy="106" fill="#ADD1B2" rx="11" ry="11" style="stroke:#181818;stroke-width:1.0;"/><path d="M524.4688,112.9219 Q522.7188,112.9219 521.5781,112.1875 Q520.4531,111.4375 519.8906,110.0938 Q519.3438,108.7344 519.3438,106.9375 Q519.3438,104.9063 520,103.4531 Q520.6563,102 521.9375,101.2188 Q523.2188,100.4375 525.0938,100.4375 Q525.9844,100.4375 526.6563,100.625 Q527.3281,100.7969 528.0156,101.1406 L527.2031,103.1563 Q526.5781,102.8438 526.0313,102.7188 Q525.5,102.5938 525.0156,102.5938 Q523.8438,102.5938 523.1406,103.125 Q522.4375,103.6563 522.1406,104.6094 Q521.8438,105.5625 521.8438,106.8281 Q521.8438,108.8438 522.5625,109.8125 Q523.2813,110.7656 524.875,110.7656 Q525.4688,110.7656 526.0938,110.6094 Q526.7188,110.4531 527.5469,110.0781 L527.5469,112.2969 Q526.8125,112.6094 526.0156,112.7656 Q525.2344,112.9219 524.4688,112.9219 Z " fill="#000000"/><text fill="#000000" font-family="sans-serif" font-size="14" lengthAdjust="spacing" textLength="122" x="539" y="111.432">partido (de futbol)</text><line style="stroke:#181818;stroke-width:0.5;" x1="511" x2="663" y1="122" y2="122"/><line style="stroke:#181818;stroke-width:0.5;" x1="511" x2="663" y1="130" y2="130"/></g><!--class Encuentro--><g id="elem_Encuentro"><rect codeLine="6" fill="#F1F1F1" height="48" id="Encuentro" rx="2.5" ry="2.5" style="stroke:#181818;stroke-width:0.5;" width="174" x="500" y="173"/><ellipse cx="515" cy="189" fill="#ADD1B2" rx="11" ry="11" style="stroke:#181818;stroke-width:1.0;"/><path d="M514.4688,195.9219 Q512.7188,195.9219 511.5781,195.1875 Q510.4531,194.4375 509.8906,193.0938 Q509.3438,191.7344 509.3438,189.9375 Q509.3438,187.9063 510,186.4531 Q510.6563,185 511.9375,184.2188 Q513.2188,183.4375 515.0938,183.4375 Q515.9844,183.4375 516.6563,183.625 Q517.3281,183.7969 518.0156,184.1406 L517.2031,186.1563 Q516.5781,185.8438 516.0313,185.7188 Q515.5,185.5938 515.0156,185.5938 Q513.8438,185.5938 513.1406,186.125 Q512.4375,186.6563 512.1406,187.6094 Q511.8438,188.5625 511.8438,189.8281 Q511.8438,191.8438 512.5625,192.8125 Q513.2813,193.7656 514.875,193.7656 Q515.4688,193.7656 516.0938,193.6094 Q516.7188,193.4531 517.5469,193.0781 L517.5469,195.2969 Q516.8125,195.6094 516.0156,195.7656 Q515.2344,195.9219 514.4688,195.9219 Z " fill="#000000"/><text fill="#000000" font-family="sans-serif" font-size="14" lengthAdjust="spacing" textLength="142" x="529" y="194.432">encuentro (de futbol)</text><line style="stroke:#181818;stroke-width:0.5;" x1="501" x2="673" y1="205" y2="205"/><line style="stroke:#181818;stroke-width:0.5;" x1="501" x2="673" y1="213" y2="213"/></g><!--class Arbitro--><g id="elem_Arbitro"><rect codeLine="7" fill="#F1F1F1" height="48" id="Arbitro" rx="2.5" ry="2.5" style="stroke:#181818;stroke-width:0.5;" width="108" x="533" y="7"/><ellipse cx="548" cy="23" fill="#ADD1B2" rx="11" ry="11" style="stroke:#181818;stroke-width:1.0;"/><path d="M547.4688,29.9219 Q545.7188,29.9219 544.5781,29.1875 Q543.4531,28.4375 542.8906,27.0938 Q542.3438,25.7344 542.3438,23.9375 Q542.3438,21.9063 543,20.4531 Q543.6563,19 544.9375,18.2188 Q546.2188,17.4375 548.0938,17.4375 Q548.9844,17.4375 549.6563,17.625 Q550.3281,17.7969 551.0156,18.1406 L550.2031,20.1563 Q549.5781,19.8438 549.0313,19.7188 Q548.5,19.5938 548.0156,19.5938 Q546.8438,19.5938 546.1406,20.125 Q545.4375,20.6563 545.1406,21.6094 Q544.8438,22.5625 544.8438,23.8281 Q544.8438,25.8438 545.5625,26.8125 Q546.2813,27.7656 547.875,27.7656 Q548.4688,27.7656 549.0938,27.6094 Q549.7188,27.4531 550.5469,27.0781 L550.5469,29.2969 Q549.8125,29.6094 549.0156,29.7656 Q548.2344,29.9219 547.4688,29.9219 Z " fill="#000000"/><text fill="#000000" font-family="sans-serif" font-size="14" lengthAdjust="spacing" textLength="76" x="562" y="28.432">los arbitros</text><line style="stroke:#181818;stroke-width:0.5;" x1="534" x2="640" y1="39" y2="39"/><line style="stroke:#181818;stroke-width:0.5;" x1="534" x2="640" y1="47" y2="47"/></g><!--class Equipo--><g id="elem_Equipo"><rect codeLine="8" fill="#F1F1F1" height="48" id="Equipo" rx="2.5" ry="2.5" style="stroke:#181818;stroke-width:0.5;" width="95" x="183" y="90"/><ellipse cx="198" cy="106" fill="#ADD1B2" rx="11" ry="11" style="stroke:#181818;stroke-width:1.0;"/><path d="M197.4688,112.9219 Q195.7188,112.9219 194.5781,112.1875 Q193.4531,111.4375 192.8906,110.0938 Q192.3438,108.7344 192.3438,106.9375 Q192.3438,104.9063 193,103.4531 Q193.6563,102 194.9375,101.2188 Q196.2188,100.4375 198.0938,100.4375 Q198.9844,100.4375 199.6563,100.625 Q200.3281,100.7969 201.0156,101.1406 L200.2031,103.1563 Q199.5781,102.8438 199.0313,102.7188 Q198.5,102.5938 198.0156,102.5938 Q196.8438,102.5938 196.1406,103.125 Q195.4375,103.6563 195.1406,104.6094 Q194.8438,105.5625 194.8438,106.8281 Q194.8438,108.8438 195.5625,109.8125 Q196.2813,110.7656 197.875,110.7656 Q198.4688,110.7656 199.0938,110.6094 Q199.7188,110.4531 200.5469,110.0781 L200.5469,112.2969 Q199.8125,112.6094 199.0156,112.7656 Q198.2344,112.9219 197.4688,112.9219 Z " fill="#000000"/><text fill="#000000" font-family="sans-serif" font-size="14" lengthAdjust="spacing" textLength="63" x="212" y="111.432">el equipo</text><line style="stroke:#181818;stroke-width:0.5;" x1="184" x2="277" y1="122" y2="122"/><line style="stroke:#181818;stroke-width:0.5;" x1="184" x2="277" y1="130" y2="130"/></g><!--class Jugador--><g id="elem_Jugador"><rect codeLine="9" fill="#F1F1F1" height="48" id="Jugador" rx="2.5" ry="2.5" style="stroke:#181818;stroke-width:0.5;" width="107" x="11.5" y="48"/><ellipse cx="26.5" cy="64" fill="#ADD1B2" rx="11" ry="11" style="stroke:#181818;stroke-width:1.0;"/><path d="M25.9688,70.9219 Q24.2188,70.9219 23.0781,70.1875 Q21.9531,69.4375 21.3906,68.0938 Q20.8438,66.7344 20.8438,64.9375 Q20.8438,62.9063 21.5,61.4531 Q22.1563,60 23.4375,59.2188 Q24.7188,58.4375 26.5938,58.4375 Q27.4844,58.4375 28.1563,58.625 Q28.8281,58.7969 29.5156,59.1406 L28.7031,61.1563 Q28.0781,60.8438 27.5313,60.7188 Q27,60.5938 26.5156,60.5938 Q25.3438,60.5938 24.6406,61.125 Q23.9375,61.6563 23.6406,62.6094 Q23.3438,63.5625 23.3438,64.8281 Q23.3438,66.8438 24.0625,67.8125 Q24.7813,68.7656 26.375,68.7656 Q26.9688,68.7656 27.5938,68.6094 Q28.2188,68.4531 29.0469,68.0781 L29.0469,70.2969 Q28.3125,70.6094 27.5156,70.7656 Q26.7344,70.9219 25.9688,70.9219 Z " fill="#000000"/><text fill="#000000" font-family="sans-serif" font-size="14" lengthAdjust="spacing" textLength="75" x="40.5" y="69.432">un jugador</text><line style="stroke:#181818;stroke-width:0.5;" x1="12.5" x2="117.5" y1="80" y2="80"/><line style="stroke:#181818;stroke-width:0.5;" x1="12.5" x2="117.5" y1="88" y2="88"/></g><!--class Jugador2--><g id="elem_Jugador2"><rect codeLine="10" fill="#F1F1F1" height="48" id="Jugador2" rx="2.5" ry="2.5" style="stroke:#181818;stroke-width:0.5;" width="116" x="7" y="131"/><ellipse cx="22" cy="147" fill="#ADD1B2" rx="11" ry="11" style="stroke:#181818;stroke-width:1.0;"/><path d="M21.4688,153.9219 Q19.7188,153.9219 18.5781,153.1875 Q17.4531,152.4375 16.8906,151.0938 Q16.3438,149.7344 16.3438,147.9375 Q16.3438,145.9063 17,144.4531 Q17.6563,143 18.9375,142.2188 Q20.2188,141.4375 22.0938,141.4375 Q22.9844,141.4375 23.6563,141.625 Q24.3281,141.7969 25.0156,142.1406 L24.2031,144.1563 Q23.5781,143.8438 23.0313,143.7188 Q22.5,143.5938 22.0156,143.5938 Q20.8438,143.5938 20.1406,144.125 Q19.4375,144.6563 19.1406,145.6094 Q18.8438,146.5625 18.8438,147.8281 Q18.8438,149.8438 19.5625,150.8125 Q20.2813,151.7656 21.875,151.7656 Q22.4688,151.7656 23.0938,151.6094 Q23.7188,151.4531 24.5469,151.0781 L24.5469,153.2969 Q23.8125,153.6094 23.0156,153.7656 Q22.2344,153.9219 21.4688,153.9219 Z " fill="#000000"/><text fill="#000000" font-family="sans-serif" font-size="14" lengthAdjust="spacing" textLength="84" x="36" y="152.432">otro jugador</text><line style="stroke:#181818;stroke-width:0.5;" x1="8" x2="122" y1="163" y2="163"/><line style="stroke:#181818;stroke-width:0.5;" x1="8" x2="122" y1="171" y2="171"/></g><!--class Per?odos--><g id="elem_Per&#237;odos"><rect fill="#F1F1F1" height="48" id="Per&#237;odos" rx="2.5" ry="2.5" style="stroke:#181818;stroke-width:0.5;" width="90" x="344" y="173"/><ellipse cx="359" cy="189" fill="#ADD1B2" rx="11" ry="11" style="stroke:#181818;stroke-width:1.0;"/><path d="M358.4688,195.9219 Q356.7188,195.9219 355.5781,195.1875 Q354.4531,194.4375 353.8906,193.0938 Q353.3438,191.7344 353.3438,189.9375 Q353.3438,187.9063 354,186.4531 Q354.6563,185 355.9375,184.2188 Q357.2188,183.4375 359.0938,183.4375 Q359.9844,183.4375 360.6563,183.625 Q361.3281,183.7969 362.0156,184.1406 L361.2031,186.1563 Q360.5781,185.8438 360.0313,185.7188 Q359.5,185.5938 359.0156,185.5938 Q357.8438,185.5938 357.1406,186.125 Q356.4375,186.6563 356.1406,187.6094 Q355.8438,188.5625 355.8438,189.8281 Q355.8438,191.8438 356.5625,192.8125 Q357.2813,193.7656 358.875,193.7656 Q359.4688,193.7656 360.0938,193.6094 Q360.7188,193.4531 361.5469,193.0781 L361.5469,195.2969 Q360.8125,195.6094 360.0156,195.7656 Q359.2344,195.9219 358.4688,195.9219 Z " fill="#000000"/><text fill="#000000" font-family="sans-serif" font-size="14" lengthAdjust="spacing" textLength="58" x="373" y="194.432">Per&#237;odos</text><line style="stroke:#181818;stroke-width:0.5;" x1="345" x2="433" y1="205" y2="205"/><line style="stroke:#181818;stroke-width:0.5;" x1="345" x2="433" y1="213" y2="213"/></g><!--class Alineaci?n--><g id="elem_Alineaci&#243;n"><rect fill="#F1F1F1" height="48" id="Alineaci&#243;n" rx="2.5" ry="2.5" style="stroke:#181818;stroke-width:0.5;" width="102" x="338" y="90"/><ellipse cx="353" cy="106" fill="#ADD1B2" rx="11" ry="11" style="stroke:#181818;stroke-width:1.0;"/><path d="M352.4688,112.9219 Q350.7188,112.9219 349.5781,112.1875 Q348.4531,111.4375 347.8906,110.0938 Q347.3438,108.7344 347.3438,106.9375 Q347.3438,104.9063 348,103.4531 Q348.6563,102 349.9375,101.2188 Q351.2188,100.4375 353.0938,100.4375 Q353.9844,100.4375 354.6563,100.625 Q355.3281,100.7969 356.0156,101.1406 L355.2031,103.1563 Q354.5781,102.8438 354.0313,102.7188 Q353.5,102.5938 353.0156,102.5938 Q351.8438,102.5938 351.1406,103.125 Q350.4375,103.6563 350.1406,104.6094 Q349.8438,105.5625 349.8438,106.8281 Q349.8438,108.8438 350.5625,109.8125 Q351.2813,110.7656 352.875,110.7656 Q353.4688,110.7656 354.0938,110.6094 Q354.7188,110.4531 355.5469,110.0781 L355.5469,112.2969 Q354.8125,112.6094 354.0156,112.7656 Q353.2344,112.9219 352.4688,112.9219 Z " fill="#000000"/><text fill="#000000" font-family="sans-serif" font-size="14" lengthAdjust="spacing" textLength="70" x="367" y="111.432">Alineaci&#243;n</text><line style="stroke:#181818;stroke-width:0.5;" x1="339" x2="439" y1="122" y2="122"/><line style="stroke:#181818;stroke-width:0.5;" x1="339" x2="439" y1="130" y2="130"/></g><!--link Partido to Encuentro--><g id="link_Partido_Encuentro"><path codeLine="12" d="M587,138.3 C587,149.76 587,161.22 587,172.68 " fill="none" id="Partido-Encuentro" style="stroke:#181818;stroke-width:1.0;"/></g><!--link Per?odos to Encuentro--><g id="link_Per&#237;odos_Encuentro"><path codeLine="13" d="M434.48,197 C453.79,197 477.1,197 499.59,197 " fill="none" id="Per&#237;odos-Encuentro" style="stroke:#181818;stroke-width:1.0;"/></g><!--link Partido to Reglas--><g id="link_Partido_Reglas"><path codeLine="15" d="M664.49,114 C686.78,114 711.19,114 733.65,114 " fill="none" id="Partido-Reglas" style="stroke:#181818;stroke-width:1.0;"/></g><!--link Alineaci?n to Partido--><g id="link_Alineaci&#243;n_Partido"><path codeLine="17" d="M440.47,114 C461.57,114 486.55,114 509.8,114 " fill="none" id="Alineaci&#243;n-Partido" style="stroke:#181818;stroke-width:1.0;"/></g><!--link Arbitro to Partido--><g id="link_Arbitro_Partido"><path codeLine="18" d="M587,55.3 C587,66.76 587,78.22 587,89.68 " fill="none" id="Arbitro-Partido" style="stroke:#181818;stroke-width:1.0;"/></g><!--link Equipo to Alineaci?n--><g id="link_Equipo_Alineaci&#243;n"><path codeLine="20" d="M278.46,114 C297.09,114 318.57,114 337.53,114 " fill="none" id="Equipo-Alineaci&#243;n" style="stroke:#181818;stroke-width:1.0;"/></g><!--link Jugador to Equipo--><g id="link_Jugador_Equipo"><path codeLine="22" d="M118.63,85.52 C139.26,90.82 162.74,96.85 182.76,101.99 " fill="none" id="Jugador-Equipo" style="stroke:#181818;stroke-width:1.0;"/></g><!--link Jugador2 to Equipo--><g id="link_Jugador2_Equipo"><path codeLine="23" d="M123.18,140.66 C142.61,135.79 164.09,130.4 182.62,125.76 " fill="none" id="Jugador2-Equipo" style="stroke:#181818;stroke-width:1.0;"/></g><!--SRC=[RP0n4i8W44LxJh6JIWiQRv32nihn1YHi8Wx3wWB7il88kPW4GgAZ3Up-_uRzYyKXG21WCru3QCFO1qDEYDugxw599p2EywKHRX57QY0rbwnLwguu64smIymGGqTsdwbpqIk6he_e0l-2n-giSyc3uiuaoMUYBStwb0LyH7ClQOwvh5vqAUYeD74sJwMkBitp__W78PQu09BbHwIr0Xabd96d9sdo6o-rh1-oQGbjhN6eUZEztAPRkUuYIcwGtwXO4itwibdD-26z0G00]--></g></svg>